<svg xmlns="http://www.w3.org/2000/svg" xmlns:xlink="http://www.w3.org/1999/xlink" width="1920" zoomAndPan="magnify" viewBox="0 0 1440 809.999993" height="1080" preserveAspectRatio="xMidYMid meet" version="1.0"><defs><clipPath id="a2c2010a7a"><path d="M 326.058594 11.058594 L 1113.941406 11.058594 L 1113.941406 798.941406 L 326.058594 798.941406 Z M 326.058594 11.058594 " clip-rule="nonzero"/></clipPath><clipPath id="7777c29d17"><path d="M 720 11.058594 C 502.433594 11.058594 326.058594 187.433594 326.058594 405 C 326.058594 622.566406 502.433594 798.941406 720 798.941406 C 937.566406 798.941406 1113.941406 622.566406 1113.941406 405 C 1113.941406 187.433594 937.566406 11.058594 720 11.058594 Z M 720 11.058594 " clip-rule="nonzero"/></clipPath><clipPath id="6f920a2372"><path d="M 360 45.460938 L 1080 45.460938 L 1080 764.710938 L 360 764.710938 Z M 360 45.460938 " clip-rule="nonzero"/></clipPath></defs><g clip-path="url(#a2c2010a7a)"><g clip-path="url(#7777c29d17)"><path fill="#ffffff" d="M 326.058594 11.058594 L 1113.941406 11.058594 L 1113.941406 798.941406 L 326.058594 798.941406 Z M 326.058594 11.058594 " fill-opacity="1" fill-rule="nonzero"/></g></g><g clip-path="url(#6f920a2372)"><path fill="#ffffff" d="M 605.332031 520.023438 C 636.058594 550.75 676.902344 567.6875 720.355469 567.6875 C 763.808594 567.6875 804.648438 550.75 835.378906 520.023438 C 866.109375 489.292969 883.046875 448.453125 883.046875 405 C 883.046875 361.542969 866.109375 320.703125 835.378906 289.972656 C 804.648438 259.246094 763.808594 242.335938 720.355469 242.335938 C 676.902344 242.335938 636.058594 259.246094 605.332031 289.972656 C 541.90625 353.398438 541.90625 456.597656 605.332031 520.023438 Z M 720.355469 589.90625 C 670.976562 589.90625 624.542969 570.667969 589.601562 535.75 C 517.527344 463.648438 517.527344 346.347656 589.601562 274.246094 C 624.542969 239.332031 670.976562 220.089844 720.355469 220.089844 C 769.734375 220.089844 816.195312 239.332031 851.109375 274.246094 C 886.023438 309.1875 905.265625 355.617188 905.265625 405 C 905.265625 454.378906 886.023438 500.808594 851.109375 535.75 C 816.195312 570.667969 769.734375 589.90625 720.355469 589.90625 Z M 720.355469 67.679688 C 630.246094 67.679688 545.558594 102.761719 481.851562 166.496094 C 350.3125 298.007812 350.3125 511.988281 481.851562 643.527344 C 545.558594 707.234375 630.246094 742.316406 720.355469 742.316406 C 810.464844 742.316406 895.152344 707.234375 958.855469 643.527344 C 1090.398438 511.988281 1090.398438 298.007812 958.855469 166.496094 C 895.152344 102.761719 810.464844 67.679688 720.355469 67.679688 Z M 720.355469 764.535156 C 624.320312 764.535156 534.042969 727.148438 466.121094 659.230469 C 325.929688 519.039062 325.929688 290.957031 466.121094 150.765625 C 534.042969 82.875 624.320312 45.460938 720.355469 45.460938 C 816.390625 45.460938 906.667969 82.875 974.585938 150.765625 C 1114.777344 290.957031 1114.777344 519.039062 974.585938 659.230469 C 906.667969 727.148438 816.390625 764.535156 720.355469 764.535156 " fill-opacity="1" fill-rule="nonzero"/></g><path fill="#ffffff" d="M 720.355469 334.691406 C 701.589844 334.691406 683.925781 342.023438 670.636719 355.28125 C 643.25 382.695312 643.25 427.300781 670.636719 454.714844 C 698.082031 482.128906 742.65625 482.128906 770.074219 454.714844 C 797.488281 427.300781 797.488281 382.695312 770.074219 355.28125 C 756.785156 342.023438 739.144531 334.691406 720.355469 334.691406 Z M 720.355469 497.523438 C 695.636719 497.523438 672.40625 487.886719 654.9375 470.417969 C 618.871094 434.351562 618.871094 375.644531 654.9375 339.578125 C 672.40625 322.109375 695.636719 312.472656 720.355469 312.472656 C 745.074219 312.472656 768.300781 322.109375 785.773438 339.578125 C 821.839844 375.644531 821.839844 434.351562 785.773438 470.417969 C 768.300781 487.886719 745.074219 497.523438 720.355469 497.523438 " fill-opacity="1" fill-rule="nonzero"/><path fill="#ffffff" d="M 908.691406 604.429688 C 905.824219 604.429688 902.988281 603.363281 900.824219 601.171875 C 896.472656 596.84375 896.472656 589.792969 900.824219 585.46875 C 949.027344 537.269531 975.570312 473.167969 975.570312 405 C 975.570312 398.875 980.570312 393.902344 986.695312 393.902344 C 992.816406 393.902344 997.816406 398.875 997.816406 405 C 997.816406 479.097656 968.941406 548.785156 916.527344 601.171875 C 914.363281 603.363281 911.527344 604.429688 908.691406 604.429688 " fill-opacity="1" fill-rule="nonzero"/><path fill="#ffffff" d="M 454.015625 416.121094 C 447.894531 416.121094 442.921875 411.148438 442.921875 405 C 442.921875 330.898438 471.769531 261.210938 524.183594 208.824219 C 528.507812 204.472656 535.558594 204.472656 539.882812 208.824219 C 544.238281 213.152344 544.238281 220.203125 539.882812 224.527344 C 491.683594 272.726562 465.140625 336.828125 465.140625 405 C 465.140625 411.148438 460.167969 416.121094 454.015625 416.121094 " fill-opacity="1" fill-rule="nonzero"/></svg>